PathFileType	4	(X/Y/Z)	D:\Share\Shared_Data\Ergonomics\Sit To Stand Pertubation\S0\Free STS.trc
DataRate	CameraRate	NumFrames	NumMarkers	Units	OrigDataRate	OrigDataStartFrame	OrigNumFrames	
100	100	11	18	m	100	4032	211
Frame#	Time	R_Toe			R_ASIS			R_Pelvis			V_Sacral			L_Pelvis			L_ASIS			Clavical			R_Acromium			L_Acromium			Sternum			Torso			R_Thigh_Med			R_Thigh_Lat			R_Thigh			R_Shank_Med			R_Shank_Lat			R_Shank			R_Heel			
		X1	Y1	Z1	X2	Y2	Z2	X3	Y3	Z3	X4	Y4	Z4	X5	Y5	Z5	X6	Y6	Z6	X7	Y7	Z7	X8	Y8	Z8	X9	Y9	Z9	X10	Y10	Z10	X11	Y11	Z11	X12	Y12	Z12	X13	Y13	Z13	X14	Y14	Z14	X15	Y15	Z15	X16	Y16	Z16	X17	Y17	Z17	X18	Y18	Z18	

4032	26.74	0.37934344	0.045517197	0.1424903	0.36431616	1.0100513	0.16027185	0.2422776	1.0240963	0.20567526	0.11520803	1.0231552	-0.019771297	0.25259799	1.0127217	-0.20343143	0.36925638	0.99654846	-0.1601929	0.37341623	1.4463146	-0.0028915541	0.29209055	1.5080559	0.14141051	0.27265884	1.510278	-0.14904951	0.4098071	1.3555867	-0.021938566	0.37396005	1.4015123	-0.12818567	0.30142526	0.49171622	0.047568668	0.29866208	0.5182467	0.17346391	0.38354047	0.64747437	0.10740098	0.25291702	0.10013251	0.10289455	0.19537971	0.090395744	0.19124867	0.23956754	0.31860388	0.20072871	0.15527008	0.045068195	0.14994501
4033	26.75	0.37924722	0.045565819	0.14257822	0.3652894	1.0102654	0.16041005	0.24328461	1.0240471	0.20586266	0.11611627	1.0223986	-0.019644367	0.25337601	1.0124589	-0.20329031	0.37015436	0.99678888	-0.1601163	0.37218539	1.4466034	-0.0027022707	0.29068076	1.507917	0.14176082	0.2708497	1.5100267	-0.148765	0.40896988	1.3560461	-0.021803457	0.37274603	1.4017778	-0.12803384	0.30038266	0.49191852	0.047517452	0.29800745	0.5184165	0.17343568	0.38348221	0.64745721	0.10704984	0.25282463	0.10020958	0.10299828	0.19523322	0.090339645	0.19133131	0.23888007	0.31870911	0.20077136	0.15518484	0.044972153	0.15002686
4034	26.76	0.37914621	0.045614685	0.14267177	0.36619595	1.0104465	0.16052792	0.24423875	1.0240375	0.20603955	0.11694956	1.0217657	-0.01951755	0.25408009	1.0122608	-0.20318364	0.37095044	0.99700269	-0.16005042	0.37101971	1.4468461	-0.0025201082	0.28935672	1.5077484	0.14209906	0.26914249	1.509774	-0.14848964	0.40816721	1.3564498	-0.021674715	0.37159296	1.4020054	-0.12788272	0.29939288	0.49210849	0.047487968	0.29738196	0.51857495	0.17343224	0.38336856	0.64741907	0.1067296	0.25273055	0.10028729	0.10310877	0.19508849	0.09028537	0.19142059	0.23823631	0.31882446	0.20083284	0.15510141	0.044883492	0.15011041
4035	26.77	0.37904214	0.045663914	0.14276982	0.36704202	1.0105977	0.16061983	0.24512798	1.0240626	0.20619745	0.11770893	1.0212628	-0.019392641	0.25471846	1.012129	-0.2031104	0.37165051	0.99719263	-0.16000172	0.36991632	1.4470531	-0.0023459096	0.28811264	1.5075612	0.14242157	0.26753842	1.5095321	-0.148228	0.40739886	1.3568091	-0.02155418	0.37050171	1.4022064	-0.12773411	0.29847263	0.49228067	0.04748241	0.29678799	0.51872058	0.17344931	0.3831813	0.64735242	0.10646295	0.25263239	0.10036283	0.10322535	0.19494525	0.090233727	0.19151529	0.23763901	0.31894397	0.2009072	0.15502075	0.044802341	0.15019403
4036	26.78	0.37893738	0.045713081	0.14287042	0.3678324	1.0107222	0.16068208	0.24594942	1.0241147	0.20633154	0.11839728	1.0208854	-0.019270393	0.25529483	1.0120593	-0.20306746	0.37226074	0.99736053	-0.1599749	0.36887219	1.4472341	-0.0021804605	0.28694348	1.5073669	0.14272539	0.26603766	1.5093109	-0.1479834	0.40666525	1.3571342	-0.021443584	0.36947229	1.4023918	-0.12759015	0.29763165	0.49243115	0.047499161	0.29622919	0.5188512	0.17348117	0.3829202	0.647255	0.10626326	0.25253218	0.10043456	0.10334543	0.19480351	0.090185356	0.19161304	0.23708884	0.31906113	0.20098785	0.15494397	0.044728325	0.15027589
4037	26.79	0.37883478	0.045761349	0.14297064	0.3685701	1.0108224	0.16071315	0.24670634	1.024182	0.20644006	0.11901856	1.0206195	-0.019150654	0.25580981	1.0120432	-0.20304974	0.37278683	0.99750714	-0.15997284	0.36788486	1.4473984	-0.0020245333	0.28584515	1.507175	0.14300841	0.26463882	1.5091189	-0.14775694	0.4059675	1.357434	-0.021344715	0.36850409	1.4025708	-0.12745274	0.29687448	0.49255881	0.047533241	0.29570959	0.51896606	0.17352135	0.38260364	0.64713141	0.10613281	0.25243449	0.10050153	0.10346504	0.19466443	0.090140709	0.19171048	0.23658408	0.31917065	0.20106874	0.15487206	0.044660824	0.15035391
4038	26.8	0.37873724	0.045807869	0.14306712	0.36925653	1.0108999	0.16071329	0.24740291	1.0242511	0.20652342	0.11957642	1.0204453	-0.019032743	0.2562623	1.0120678	-0.2030506	0.37323419	0.99763306	-0.1599967	0.36695236	1.4475525	-0.001879053	0.28481537	1.506995	0.14326942	0.26333893	1.5089617	-0.14754738	0.40530765	1.3577159	-0.021259218	0.36759567	1.4027509	-0.12732342	0.29620312	0.49266479	0.047577454	0.29523282	0.51906561	0.17356345	0.38226031	0.64699109	0.10606358	0.25234383	0.10056284	0.10357946	0.19453004	0.090100021	0.19180379	0.23612196	0.31926938	0.20114453	0.15480566	0.044599319	0.15042599
4039	26.81	0.37864648	0.045852028	0.14315681	0.36989136	1.0109552	0.1606841	0.24804152	1.0243086	0.20658334	0.12007317	1.0203389	-0.018915905	0.2566506	1.0121182	-0.20306281	0.37360785	0.99773944	-0.16004616	0.36607385	1.4477008	-0.0017450798	0.28385364	1.5068333	0.14350775	0.26213449	1.5088412	-0.14735222	0.40468771	1.3579855	-0.021188187	0.36674521	1.4029354	-0.12720332	0.29561868	0.49275183	0.047623856	0.29480133	0.51915106	0.17360187	0.38192117	0.6468454	0.10604003	0.25226337	0.10061761	0.10368404	0.19440233	0.090063408	0.1918891	0.23570076	0.31935638	0.20121085	0.15474475	0.044543476	0.15049037
4040	26.82	0.37856345	0.045893291	0.14323741	0.37047281	1.0109892	0.16062846	0.24862329	1.0243423	0.20662222	0.12050965	1.0202762	-0.018799725	0.25697351	1.0121796	-0.2030798	0.37391299	0.99782855	-0.16011974	0.36524945	1.4478455	-0.0016237383	0.28296085	1.5066943	0.14372299	0.261022	1.5087568	-0.14716902	0.40410846	1.3582449	-0.021132042	0.36595074	1.4031257	-0.12709348	0.29512134	0.49282269	0.047665054	0.29441644	0.51922406	0.17363216	0.38161417	0.64670514	0.10604321	0.25219426	0.10066518	0.10377493	0.19428288	0.090030922	0.19196321	0.23532101	0.31943182	0.20126434	0.1546888	0.044493046	0.15054539
4041	26.83	0.3784884	0.045930981	0.14330746	0.37099881	1.0110032	0.16055057	0.24914885	1.0243444	0.20664261	0.12088573	1.0202348	-0.018684458	0.25723148	1.0122383	-0.2030965	0.37415463	0.99790308	-0.16021492	0.36448047	1.4479857	-0.0015162091	0.28213831	1.5065802	0.14391499	0.25999854	1.5087061	-0.14699663	0.40356912	1.3584933	-0.021090752	0.36521042	1.4033202	-0.12699491	0.29471033	0.49287955	0.047695248	0.29408023	0.51928558	0.17365129	0.38136002	0.64657867	0.10605461	0.25213557	0.10070486	0.10384982	0.19417336	0.09000267	0.19202403	0.23498567	0.31949664	0.20130278	0.15463725	0.04444796	0.15058974
4042	26.84	0.37842203	0.04596434	0.14336607	0.37146796	1.0110001	0.1604554	0.24961882	1.0243101	0.2066467	0.1212013	1.0201962	-0.018571268	0.2574274	1.0122836	-0.20310992	0.37433759	0.99796606	-0.16032861	0.36376791	1.4481196	-0.0014236785	0.28138763	1.5064906	0.14408372	0.25906168	1.5086842	-0.14683534	0.40306793	1.3587275	-0.021063906	0.36452249	1.403514	-0.12690858	0.29438446	0.49292322	0.047710884	0.29379651	0.51933636	0.17365718	0.38117004	0.64647058	0.10605923	0.2520847	0.10073598	0.10390814	0.19407564	0.089978813	0.19207095	0.23469925	0.31955167	0.20132481	0.15459004	0.044408512	0.1506228
